<?xml version="1.0" standalone="no"?>
<!DOCTYPE svg PUBLIC "-//W3C//DTD SVG 20010904//EN"
 "http://www.w3.org/TR/2001/REC-SVG-20010904/DTD/svg10.dtd">
<svg version="1.0" xmlns="http://www.w3.org/2000/svg"
 width="674.000000pt" height="370.000000pt" viewBox="0 0 674.000000 370.000000"
 preserveAspectRatio="xMidYMid meet">

<g transform="translate(0.000000,370.000000) scale(0.100000,-0.100000)"
fill="#000000" stroke="none">
<path d="M3065 3417 c-170 -211 -270 -323 -444 -500 l-225 -227 21 -22 22 -21
-25 -32 -24 -31 192 -155 c105 -85 234 -189 287 -232 53 -43 191 -173 306
-288 116 -115 215 -209 220 -209 4 0 16 7 26 16 17 15 20 14 48 -5 l30 -22
221 273 c174 215 269 321 447 500 l227 227 -22 24 -22 24 20 25 c11 15 20 29
20 32 0 3 -120 103 -267 222 -210 169 -318 266 -499 446 -228 227 -230 229
-249 208 -23 -25 -37 -25 -60 0 -10 11 -21 20 -24 20 -3 0 -105 -123 -226
-273z m521 -78 c-14 -11 -26 -27 -26 -35 0 -8 -4 -14 -9 -14 -4 0 -23 -28 -41
-62 l-33 -63 44 41 c77 73 156 98 221 71 53 -22 71 -63 66 -151 -5 -98 -43
-179 -118 -250 -67 -64 -112 -85 -198 -93 l-63 -6 19 -21 c11 -12 25 -32 32
-46 20 -37 17 -157 -5 -214 -13 -34 -15 -50 -7 -55 6 -3 8 -12 4 -18 -12 -20
-27 0 -29 37 -12 276 -17 299 -70 339 l-28 20 66 -6 c91 -8 153 14 224 79 100
91 154 253 111 335 -33 65 -119 50 -209 -35 -82 -79 -105 -115 -177 -282 -145
-336 -239 -482 -345 -531 -53 -25 -147 -25 -202 0 -46 21 -98 84 -108 132 -4
16 -12 29 -18 29 -7 0 -25 12 -42 26 -21 17 -23 22 -8 14 12 -5 25 -15 28 -20
12 -20 32 -10 28 13 -12 62 32 196 85 259 36 42 136 88 187 86 l40 -1 -37 -4
c-27 -3 -38 -9 -38 -21 0 -14 -2 -14 -9 -3 -22 35 -142 -64 -176 -145 -24 -57
-37 -134 -29 -176 5 -35 8 -38 42 -40 l37 -1 -37 -4 -38 -4 20 -38 c25 -49 71
-88 120 -101 119 -32 229 78 361 356 111 237 208 429 243 482 29 43 32 52 18
53 -13 1 -12 3 3 6 11 3 36 23 56 44 20 22 44 39 54 39 14 0 13 -4 -9 -21z
m18 -13 c-3 -8 -13 -17 -22 -21 -13 -5 -13 -2 3 15 21 24 26 25 19 6z m-166
-63 c-10 -2 -26 -2 -35 0 -10 3 -2 5 17 5 19 0 27 -2 18 -5z m-75 -10 c-7 -2
-21 -2 -30 0 -10 3 -4 5 12 5 17 0 24 -2 18 -5z m-313 -116 c0 -2 -15 -16 -32
-33 l-33 -29 29 33 c28 30 36 37 36 29z m14 -258 c14 -17 26 -36 26 -42 0 -7
-9 3 -20 21 -11 18 -30 37 -43 42 -15 6 -17 9 -5 9 9 1 28 -13 42 -30z m-73
-110 c12 -6 30 -9 40 -6 10 3 19 1 19 -4 0 -15 -44 -10 -68 7 -21 14 -52 64
-52 81 1 4 10 -9 21 -29 10 -21 29 -42 40 -49z m106 19 c-3 -8 -6 -5 -6 6 -1
11 2 17 5 13 3 -3 4 -12 1 -19z m-10 -50 c-3 -8 -6 -5 -6 6 -1 11 2 17 5 13 3
-3 4 -12 1 -19z m-484 -25 c-7 -2 -13 -12 -13 -20 0 -9 -3 -14 -6 -10 -10 10
4 37 18 36 10 0 10 -2 1 -6z m448 -60 c-5 -10 -26 -34 -47 -53 -36 -33 -35
-32 7 17 47 56 55 63 40 36z m-442 -33 c11 -24 11 -24 -3 -6 -9 11 -16 24 -16
30 0 12 5 7 19 -24z m1294 23 c-7 -2 -21 -2 -30 0 -10 3 -4 5 12 5 17 0 24 -2
18 -5z m-78 -13 c-41 -17 -77 -70 -134 -198 -99 -219 -153 -283 -236 -281
l-40 2 43 6 c26 5 53 18 71 35 30 29 121 195 121 221 0 8 -12 16 -27 18 -20 3
-19 4 6 2 30 -1 35 2 52 42 40 94 104 163 149 162 10 0 8 -3 -5 -9z m-879 -75
c-11 -8 -25 -15 -30 -15 -6 1 0 7 14 15 32 19 40 18 16 0z m-88 -32 c-10 -2
-26 -2 -35 0 -10 3 -2 5 17 5 19 0 27 -2 18 -5z m550 -130 c-14 -16 -30 -37
-36 -48 -6 -11 -12 -15 -12 -8 0 13 57 83 68 83 3 0 -6 -12 -20 -27z m319 21
c-3 -3 -12 -4 -19 -1 -8 3 -5 6 6 6 11 1 17 -2 13 -5z m-364 -183 c-1 -1 -5
-1 -10 2 -5 3 -6 25 -4 49 l5 43 6 -45 c3 -25 5 -47 3 -49z m27 -46 l25 -30
-27 24 c-16 14 -28 29 -28 34 0 6 1 8 3 6 1 -2 13 -17 27 -34z"/>
<path d="M1484 2111 c-18 -11 -46 -38 -65 -60 -18 -23 -42 -42 -53 -42 -16 -1
-17 -2 -4 -6 13 -3 6 -21 -42 -95 -71 -109 -185 -330 -269 -520 -231 -524
-396 -732 -580 -731 -96 0 -187 61 -234 157 -15 30 -27 57 -27 60 0 3 12 7 28
7 27 2 27 2 2 6 -35 7 -40 18 -40 98 0 133 48 259 135 353 50 55 142 112 179
112 9 0 16 4 16 10 0 12 -85 -19 -143 -53 -126 -74 -209 -238 -211 -414 -1
-46 -4 -83 -7 -83 -11 0 -81 51 -101 73 l-20 22 16 -25 c15 -23 91 -80 107
-80 5 0 12 -12 15 -28 21 -87 87 -172 161 -209 50 -24 69 -27 152 -28 85 0
102 3 153 28 106 52 226 197 330 397 50 96 139 291 224 490 63 150 118 233
217 328 78 74 152 112 221 112 43 0 53 -4 82 -35 94 -100 30 -350 -130 -510
-81 -81 -153 -120 -248 -134 -59 -9 -131 -3 -169 13 -31 14 -28 -11 4 -34 77
-57 88 -95 94 -320 5 -214 16 -263 69 -310 19 -16 42 -30 52 -29 13 0 12 2 -4
9 -55 22 -65 81 -39 230 29 167 13 279 -51 349 -19 21 -34 42 -34 46 0 4 17 5
38 1 112 -17 260 41 362 143 130 131 195 322 163 481 -9 48 -79 116 -128 126
-91 17 -206 -31 -310 -129 -27 -26 -51 -45 -53 -42 -9 8 94 175 112 181 12 4
15 9 7 13 -7 5 1 20 24 45 21 23 39 35 46 30 8 -4 9 -3 5 4 -10 16 -16 15 -52
-7z"/>
<path d="M1500 2059 c-22 -18 -22 -19 -3 -10 12 6 25 16 28 21 9 15 3 12 -25
-11z"/>
<path d="M5084 2062 c-39 -10 -93 -31 -120 -47 -27 -16 -58 -28 -69 -27 -16 2
-17 1 -5 -7 12 -8 10 -13 -12 -30 -53 -42 -131 -163 -209 -326 l-80 -166 -29
6 c-50 11 -156 8 -181 -5 -32 -17 -69 -51 -69 -64 0 -6 7 -1 15 11 23 33 78
46 161 40 40 -3 78 -8 83 -11 12 -8 -12 -68 -111 -269 -173 -353 -321 -510
-478 -510 -110 0 -219 86 -254 201 -6 18 -3 22 16 23 20 1 21 2 3 6 -11 3 -23
10 -27 17 -11 17 -9 138 3 198 24 115 111 248 198 302 37 24 124 53 176 60 17
2 5 2 -25 1 -130 -7 -256 -94 -322 -222 -48 -93 -63 -153 -63 -250 0 -46 -2
-83 -5 -83 -3 0 -21 10 -40 21 -21 13 -30 15 -22 6 7 -8 26 -20 41 -27 22 -9
34 -25 50 -70 41 -112 117 -180 227 -200 237 -45 396 90 598 505 40 83 84 176
97 208 26 66 13 63 144 33 80 -18 165 -20 214 -6 37 10 101 50 101 63 0 4 -15
-3 -32 -17 -71 -53 -165 -57 -308 -12 -84 26 -81 20 -43 116 71 180 148 321
219 399 29 33 41 40 63 36 21 -4 22 -4 6 3 -18 8 -17 11 15 31 67 41 134 54
255 48 134 -6 199 -27 226 -71 10 -17 19 -26 19 -19 0 26 -62 82 -108 98 -72
25 -232 29 -318 7z"/>
<path d="M4543 2003 c9 -2 23 -2 30 0 6 3 -1 5 -18 5 -16 0 -22 -2 -12 -5z"/>
<path d="M4748 2003 c12 -2 30 -2 40 0 9 3 -1 5 -23 4 -22 0 -30 -2 -17 -4z"/>
<path d="M1303 1993 c9 -2 23 -2 30 0 6 3 -1 5 -18 5 -16 0 -22 -2 -12 -5z"/>
<path d="M4468 1993 c6 -2 18 -2 25 0 6 3 1 5 -13 5 -14 0 -19 -2 -12 -5z"/>
<path d="M4833 1993 c9 -2 23 -2 30 0 6 3 -1 5 -18 5 -16 0 -22 -2 -12 -5z"/>
<path d="M1238 1983 c6 -2 18 -2 25 0 6 3 1 5 -13 5 -14 0 -19 -2 -12 -5z"/>
<path d="M1153 1973 c9 -2 23 -2 30 0 6 3 -1 5 -18 5 -16 0 -22 -2 -12 -5z"/>
<path d="M1083 1963 c9 -2 23 -2 30 0 6 3 -1 5 -18 5 -16 0 -22 -2 -12 -5z"/>
<path d="M1038 1953 c7 -3 16 -2 19 1 4 3 -2 6 -13 5 -11 0 -14 -3 -6 -6z"/>
<path d="M4320 1950 c-8 -5 -10 -10 -5 -10 6 0 17 5 25 10 8 5 11 10 5 10 -5
0 -17 -5 -25 -10z"/>
<path d="M5035 1951 c11 -4 36 -11 55 -15 24 -4 29 -3 15 3 -11 4 -36 11 -55
15 -24 4 -29 3 -15 -3z"/>
<path d="M965 1940 c-25 -11 1 -11 35 0 20 6 21 8 5 8 -11 0 -29 -3 -40 -8z"/>
<path d="M5479 1923 c-13 -16 -12 -17 4 -4 16 13 21 21 13 21 -2 0 -10 -8 -17
-17z"/>
<path d="M895 1915 c-25 -12 -26 -14 -5 -9 28 7 60 23 45 23 -5 0 -23 -6 -40
-14z"/>
<path d="M4254 1914 c-18 -14 -18 -15 4 -4 12 6 22 13 22 15 0 8 -5 6 -26 -11z"/>
<path d="M5148 1923 c7 -3 16 -2 19 1 4 3 -2 6 -13 5 -11 0 -14 -3 -6 -6z"/>
<path d="M5188 1913 c6 -2 18 -2 25 0 6 3 1 5 -13 5 -14 0 -19 -2 -12 -5z"/>
<path d="M5338 1893 c18 -2 45 -2 60 0 15 2 0 4 -33 4 -33 0 -45 -2 -27 -4z"/>
<path d="M4179 1863 c-13 -16 -12 -17 4 -4 16 13 21 21 13 21 -2 0 -10 -8 -17
-17z"/>
<path d="M4129 1823 c-13 -16 -12 -17 4 -4 16 13 21 21 13 21 -2 0 -10 -8 -17
-17z"/>
<path d="M719 1813 c-13 -16 -12 -17 4 -4 9 7 17 15 17 17 0 8 -8 3 -21 -13z"/>
<path d="M4077 1758 c-33 -44 -50 -78 -43 -86 3 -3 6 -1 6 5 0 6 15 34 34 62
39 57 40 69 3 19z"/>
<path d="M623 1718 c-19 -22 -63 -88 -51 -78 9 8 78 100 75 100 -2 0 -13 -10
-24 -22z"/>
<path d="M552 1605 c-17 -37 -14 -45 4 -12 9 16 14 31 11 33 -2 2 -9 -7 -15
-21z"/>
<path d="M4003 1535 c0 -38 2 -53 4 -32 2 20 2 52 0 70 -2 17 -4 1 -4 -38z"/>
<path d="M525 1530 c-4 -17 -5 -34 -2 -36 2 -3 7 10 11 27 8 42 0 50 -9 9z"/>
<path d="M2997 1514 l-24 -47 -95 2 c-73 2 -104 -2 -131 -15 -50 -24 -47 -35
6 -17 41 14 177 20 196 9 5 -4 -22 -73 -61 -154 -38 -81 -92 -200 -118 -264
-53 -127 -108 -216 -165 -266 -39 -35 -62 -40 -72 -16 -9 24 13 87 78 223 32
68 59 132 59 142 0 12 -10 21 -26 25 -21 5 -31 2 -44 -16 -12 -16 -19 -19 -25
-10 -4 6 -23 18 -42 26 -84 36 -181 -42 -264 -212 -54 -111 -122 -194 -157
-194 -34 0 -28 45 18 145 51 110 64 166 50 211 -22 65 -90 73 -169 20 l-50
-34 6 30 c5 23 2 34 -12 44 -31 23 -50 0 -94 -115 -57 -148 -121 -244 -196
-295 -95 -65 -161 -4 -134 123 10 46 13 51 37 51 55 0 107 23 149 65 36 36 43
49 43 82 0 49 -23 73 -72 73 -102 0 -199 -103 -229 -240 -15 -68 -5 -112 34
-153 47 -50 101 -57 172 -22 30 14 63 37 74 51 25 32 28 31 27 -12 -2 -70 22
-46 96 98 55 108 86 156 129 200 49 49 62 58 93 58 34 0 36 -2 36 -31 0 -17
-15 -70 -34 -118 -66 -166 -68 -209 -11 -247 34 -22 71 -7 125 52 22 24 42 44
44 44 2 0 7 -11 10 -25 16 -65 113 -73 185 -15 l41 32 0 -31 c0 -33 30 -71 56
-71 33 0 86 34 122 78 l37 45 5 -48 c4 -40 10 -52 31 -64 24 -14 31 -13 69 4
23 10 57 37 75 59 l34 41 10 -27 c28 -73 133 -78 196 -8 l19 21 11 -38 c21
-76 84 -80 155 -10 40 39 150 209 150 231 0 23 -26 -6 -67 -76 -57 -98 -133
-181 -160 -176 -42 8 -27 67 64 260 47 98 54 120 43 133 -17 21 -46 19 -63 -5
-13 -18 -16 -19 -27 -5 -7 8 -29 20 -49 26 -32 9 -44 8 -84 -11 -64 -30 -117
-95 -178 -217 -71 -143 -167 -227 -177 -157 -4 27 46 160 167 440 l98 229 109
-3 c62 -2 120 1 134 7 36 15 76 48 67 57 -4 4 -15 -1 -26 -10 -11 -10 -41 -24
-67 -32 -46 -13 -73 -13 -171 2 l-32 5 20 45 c25 59 24 64 -6 64 -19 0 -30
-10 -48 -46z m-432 -433 c9 -29 -82 -231 -122 -273 -61 -62 -133 -72 -133 -18
0 65 95 240 154 285 49 37 90 39 101 6z m-827 -11 c7 -58 -83 -135 -148 -128
l-32 3 37 55 c61 92 136 129 143 70z m1490 7 c2 -11 -13 -64 -35 -120 -30 -79
-48 -111 -83 -147 -49 -50 -93 -69 -116 -49 -41 34 24 195 117 292 40 42 51
48 80 45 23 -2 35 -9 37 -21z"/>
<path d="M592 1459 c68 -10 109 -29 137 -65 12 -15 21 -22 21 -16 0 18 -69 71
-107 81 -21 6 -54 10 -73 10 -26 -1 -20 -4 22 -10z"/>
<path d="M4148 1453 c7 -3 16 -2 19 1 4 3 -2 6 -13 5 -11 0 -14 -3 -6 -6z"/>
<path d="M4020 1416 c0 -11 30 -66 36 -66 2 0 -3 15 -12 33 -19 36 -24 44 -24
33z"/>
<path d="M521 1382 c-1 -15 26 -82 33 -82 3 0 -1 15 -8 33 -7 17 -16 39 -19
47 -3 10 -6 10 -6 2z"/>
<path d="M4302 1355 c0 -16 2 -22 5 -12 2 9 2 23 0 30 -3 6 -5 -1 -5 -18z"/>
<path d="M757 1303 c6 -79 11 -89 12 -23 0 30 -3 61 -8 68 -4 7 -6 -13 -4 -45z"/>
<path d="M4074 1321 c20 -22 26 -25 26 -13 0 4 -10 13 -22 21 -23 14 -23 14
-4 -8z"/>
<path d="M4272 1315 c0 -16 2 -22 5 -12 2 9 2 23 0 30 -3 6 -5 -1 -5 -18z"/>
<path d="M580 1265 c13 -14 26 -25 28 -25 3 0 -5 11 -18 25 -13 14 -26 25 -28
25 -3 0 5 -11 18 -25z"/>
<path d="M4346 1278 c7 -11 34 -10 34 1 0 6 -9 9 -19 8 -11 0 -17 -5 -15 -9z"/>
<path d="M4272 1250 c0 -14 2 -19 5 -12 2 6 2 18 0 25 -3 6 -5 1 -5 -13z"/>
<path d="M4667 1242 c-23 -25 -31 -75 -18 -101 10 -17 7 -32 -19 -83 -33 -68
-35 -78 -20 -78 5 0 23 27 40 59 l30 60 35 -10 c20 -6 50 -7 67 -4 36 8 37 13
-18 -120 -64 -154 -50 -255 34 -255 28 0 44 9 85 50 27 28 51 50 52 50 2 0 6
-11 9 -25 16 -65 113 -73 185 -15 l41 32 0 -36 c0 -27 6 -40 25 -52 33 -22 73
-11 124 33 l42 35 -7 -27 c-7 -27 10 -50 29 -38 4 2 33 55 63 116 93 187 170
277 237 277 16 0 28 -7 32 -19 6 -18 0 -38 -59 -194 -40 -104 -33 -167 20
-188 37 -14 86 13 130 72 36 46 54 54 54 23 0 -28 30 -73 59 -90 17 -10 28
-21 25 -25 -2 -5 4 -13 15 -19 31 -16 15 -40 -26 -40 -20 0 -32 -4 -28 -10 9
-14 78 -13 93 2 19 19 14 46 -10 54 -19 6 -14 9 29 19 57 13 110 48 143 95 22
31 40 32 40 1 0 -30 42 -61 84 -61 43 0 70 12 108 47 l26 25 7 -34 c9 -40 32
-68 57 -68 54 0 134 78 197 191 43 79 47 92 34 96 -5 2 -19 -18 -32 -44 -54
-113 -152 -222 -186 -209 -33 12 -7 102 82 279 35 71 41 91 33 107 -14 26 -45
26 -63 0 -13 -18 -16 -19 -27 -5 -7 8 -29 20 -49 26 -80 24 -177 -56 -251
-206 -51 -103 -102 -169 -155 -201 -51 -30 -88 -31 -116 -3 -18 18 -21 30 -17
88 5 90 46 177 110 237 61 57 93 58 92 4 0 -19 -2 -43 -5 -52 -9 -35 17 -18
31 21 13 38 13 42 -6 68 -58 78 -196 17 -259 -115 -16 -31 -37 -77 -49 -101
-29 -59 -116 -151 -144 -151 -34 0 -28 36 25 152 29 64 48 122 51 155 4 45 1
55 -21 77 -43 43 -114 32 -174 -27 -33 -31 -44 -24 -20 14 10 18 9 23 -11 39
-13 11 -29 17 -36 14 -8 -3 -31 -47 -51 -97 -66 -163 -97 -219 -150 -274 -78
-81 -113 -67 -81 32 9 29 41 103 71 164 30 62 55 121 55 131 0 31 -49 38 -70
11 -14 -20 -18 -21 -29 -7 -7 8 -28 20 -47 26 -31 11 -41 9 -90 -15 -67 -33
-115 -93 -174 -218 -66 -140 -159 -221 -168 -146 -4 32 31 135 88 257 41 87
42 94 27 110 -15 14 -21 15 -50 3 -39 -17 -127 -25 -145 -13 -10 7 -9 16 3 45
19 47 19 83 -1 91 -21 8 -19 9 -37 -12z m31 -48 c-7 -21 -18 -37 -23 -34 -14
7 -10 57 6 76 21 25 31 1 17 -42z m556 -112 c10 -30 -80 -231 -121 -274 -47
-48 -98 -67 -121 -44 -14 14 -15 22 -4 63 20 76 73 174 123 225 38 40 51 48
81 48 27 0 38 -5 42 -18z m1254 -5 c5 -26 -76 -220 -109 -260 -34 -42 -91 -71
-121 -62 -18 6 -20 13 -15 55 8 69 64 177 123 238 45 47 56 53 85 50 23 -2 35
-9 37 -21z"/>
<path d="M633 1228 c16 -10 67 -10 67 0 0 4 -18 7 -39 7 -22 0 -34 -3 -28 -7z"/>
<path d="M751 1204 c0 -11 3 -14 6 -6 3 7 2 16 -1 19 -3 4 -6 -2 -5 -13z"/>
<path d="M17 1173 c-10 -9 -8 -96 2 -111 5 -8 6 7 3 36 -2 30 0 52 7 56 6 4
11 11 11 17 0 10 -14 12 -23 2z"/>
<path d="M3527 1173 c-4 -3 -7 -13 -7 -21 0 -12 3 -12 15 -2 8 7 15 16 15 21
0 11 -14 12 -23 2z"/>
<path d="M3522 1105 c0 -16 2 -22 5 -12 2 9 2 23 0 30 -3 6 -5 -1 -5 -18z"/>
<path d="M705 1090 c-9 -16 -13 -30 -11 -30 3 0 12 14 21 30 9 17 13 30 11 30
-3 0 -12 -13 -21 -30z"/>
<path d="M3530 1060 c0 -17 36 -80 46 -80 4 0 2 6 -4 13 -7 7 -18 29 -26 48
-9 19 -15 27 -16 19z"/>
<path d="M625 993 c-33 -31 -46 -47 -30 -36 29 20 104 93 94 93 -2 -1 -31 -26
-64 -57z"/>
<path d="M4150 1005 c-24 -25 -42 -45 -39 -45 3 0 25 20 49 45 24 25 42 45 39
45 -3 0 -25 -20 -49 -45z"/>
<path d="M30 1031 c0 -6 4 -13 10 -16 6 -3 7 1 4 9 -7 18 -14 21 -14 7z"/>
<path d="M520 920 c-9 -6 -10 -10 -3 -10 6 0 15 5 18 10 8 12 4 12 -15 0z"/>
<path d="M4030 920 c-9 -6 -10 -10 -3 -10 6 0 15 5 18 10 8 12 4 12 -15 0z"/>
<path d="M408 883 c6 -2 18 -2 25 0 6 3 1 5 -13 5 -14 0 -19 -2 -12 -5z"/>
<path d="M3928 883 c7 -3 16 -2 19 1 4 3 -2 6 -13 5 -11 0 -14 -3 -6 -6z"/>
<path d="M298 873 c18 -2 45 -2 60 0 15 2 0 4 -33 4 -33 0 -45 -2 -27 -4z"/>
<path d="M3808 873 c18 -2 45 -2 60 0 15 2 0 4 -33 4 -33 0 -45 -2 -27 -4z"/>
<path d="M1760 281 l0 -159 76 -4 c42 -2 78 0 80 4 3 4 -26 8 -63 10 l-68 3 0
75 0 75 65 6 65 5 -65 5 -65 4 0 60 0 60 70 6 70 5 -82 2 -83 2 0 -159z"/>
<path d="M3510 276 l0 -164 64 2 c70 2 111 22 126 61 13 35 -3 77 -38 101 -31
21 -31 22 -12 39 13 12 20 31 20 56 0 51 -27 69 -102 69 l-58 0 0 -164z m118
138 c26 -18 30 -74 7 -97 -16 -16 -80 -31 -95 -22 -6 3 -10 35 -10 71 l0 64
38 0 c21 0 48 -7 60 -16z m36 -153 c10 -9 16 -29 16 -57 0 -38 -4 -45 -30 -59
-16 -8 -49 -15 -75 -15 l-45 0 0 76 0 76 59 -4 c33 -2 66 -10 75 -17z"/>
<path d="M4058 279 c-2 -89 0 -163 5 -166 4 -2 7 70 7 161 0 91 -2 166 -5 166
-2 0 -5 -72 -7 -161z"/>
<path d="M2002 364 c-27 -19 -29 -64 -4 -86 9 -9 34 -23 54 -31 44 -19 62 -46
49 -80 -17 -45 -71 -50 -113 -10 -34 33 -38 12 -3 -22 30 -31 73 -32 109 -4
23 18 27 28 24 62 -3 39 -7 43 -58 72 -47 26 -55 35 -55 59 0 37 31 50 70 30
37 -19 41 -18 20 6 -22 24 -62 26 -93 4z"/>
<path d="M2180 195 c0 -117 4 -185 10 -185 6 0 10 32 10 75 0 41 2 75 5 75 2
0 21 -11 41 -25 89 -60 194 4 194 118 0 40 -35 96 -70 114 -37 19 -91 16 -128
-7 -40 -25 -42 -25 -42 0 0 11 -4 20 -10 20 -6 0 -10 -68 -10 -185z m188 155
c36 -22 52 -54 52 -106 0 -70 -41 -113 -108 -114 -37 0 -50 6 -78 34 -28 28
-34 42 -34 75 0 104 86 161 168 111z"/>
<path d="M2548 365 c-37 -21 -58 -64 -58 -118 0 -116 124 -173 207 -95 l23 21
0 -26 c0 -14 5 -29 10 -32 6 -4 10 42 10 129 0 84 -4 136 -10 136 -5 0 -10
-12 -10 -27 l0 -26 -25 23 c-31 29 -108 37 -147 15z m142 -30 c51 -49 45 -132
-11 -179 -78 -66 -192 8 -174 113 6 37 41 81 75 94 29 12 83 -2 110 -28z"/>
<path d="M2885 370 c-39 -16 -75 -64 -81 -110 -7 -57 23 -106 83 -135 31 -15
41 -25 37 -37 -4 -13 0 -18 15 -18 26 0 36 -17 21 -35 -7 -9 -8 -15 -2 -15 5
0 15 7 22 15 16 19 -3 45 -31 45 -30 0 -12 23 31 42 22 9 40 22 40 28 0 8 -8
7 -25 -4 -58 -38 -145 -5 -166 63 -14 47 -7 81 24 117 30 34 104 45 142 20 21
-14 25 -14 25 -2 0 27 -90 45 -135 26z"/>
<path d="M3144 371 c-72 -31 -99 -137 -52 -204 41 -57 116 -73 175 -37 46 28
66 72 60 133 -6 68 -46 108 -114 113 -26 2 -57 0 -69 -5z m126 -30 c14 -10 31
-36 39 -59 13 -37 13 -44 -4 -82 -43 -94 -168 -94 -210 1 -50 110 77 212 175
140z"/>
<path d="M3815 369 c-82 -43 -84 -189 -3 -239 54 -33 116 -22 162 29 26 28 12
26 -28 -4 -72 -55 -176 -11 -176 74 0 20 5 21 114 21 l114 0 -8 37 c-13 55
-49 85 -107 89 -26 2 -57 -1 -68 -7z m113 -19 c26 -16 52 -53 52 -76 0 -2 -47
-4 -105 -4 -115 0 -123 5 -84 54 38 49 85 57 137 26z"/>
<path d="M4194 361 c-70 -43 -78 -154 -15 -215 43 -41 100 -46 151 -12 22 14
40 31 40 36 0 16 -10 12 -42 -15 -54 -45 -130 -29 -163 35 -30 58 -26 60 100
60 109 0 115 1 115 20 0 86 -108 138 -186 91z m109 -2 c29 -15 56 -50 57 -71
0 -16 -12 -18 -104 -18 l-105 0 11 31 c19 54 91 84 141 58z"/>
<path d="M4450 370 c0 -6 37 -10 90 -10 75 0 90 -2 83 -14 -4 -7 -46 -55 -93
-106 -127 -138 -129 -125 21 -128 82 -2 129 1 129 7 0 6 -45 11 -110 13 l-110
3 105 118 c58 65 105 120 105 123 0 2 -49 4 -110 4 -67 0 -110 -4 -110 -10z"/>
<path d="M4795 370 c-11 -4 -31 -20 -45 -35 -21 -22 -25 -37 -25 -85 0 -51 4
-63 30 -90 16 -17 46 -35 66 -42 33 -9 42 -8 84 16 57 31 55 31 55 6 0 -11 5
-20 10 -20 6 0 10 50 10 130 0 80 -4 130 -10 130 -5 0 -10 -11 -10 -25 0 -14
-4 -25 -10 -25 -5 0 -10 4 -10 8 0 4 -13 15 -29 25 -31 18 -82 21 -116 7z
m100 -14 c119 -50 59 -246 -68 -222 -52 10 -87 55 -87 112 0 56 12 79 53 104
38 24 57 25 102 6z"/>
</g>
</svg>
